<svg width="52" height="11" viewBox="0 0 52 11" fill="none" xmlns="http://www.w3.org/2000/svg">
<path d="M7.32755 8.54086H5.8462L5.0346 6.06893H2.21487L1.44176 8.54086H0L2.79443 0.126903H4.51992L7.32755 8.54086ZM4.79046 5.03238L4.05693 2.83558C3.97885 2.61163 3.83368 2.0827 3.61924 1.2509H3.59284C3.50706 1.60921 3.3696 2.13708 3.18044 2.83558L2.45901 5.03238H4.79046ZM14.5011 5.43228C14.5011 6.46457 14.2119 7.2793 13.6334 7.87862C13.1155 8.41183 12.4721 8.67736 11.7045 8.67736C10.8753 8.67736 10.2793 8.3905 9.91744 7.81677V11H8.52737V4.46612C8.52737 3.81774 8.50977 3.15337 8.47568 2.47193H9.69859L9.77667 3.43383H9.80306C10.2672 2.70974 10.971 2.34717 11.9146 2.34717C12.6525 2.34717 13.2694 2.62976 13.7621 3.19603C14.2548 3.76335 14.5022 4.50771 14.5022 5.43228H14.5011ZM13.0847 5.48134C13.0847 4.89055 12.9472 4.40426 12.6723 4.02036C12.3721 3.62152 11.9673 3.4221 11.4615 3.4221C11.1183 3.4221 10.8071 3.53301 10.5278 3.75269C10.2485 3.9745 10.0659 4.26243 9.98012 4.62075C9.94163 4.75511 9.92073 4.89268 9.91523 5.03131V6.04333C9.91523 6.48376 10.0549 6.85594 10.3342 7.16093C10.6136 7.46486 10.9765 7.61629 11.4219 7.61629C11.9454 7.61629 12.3534 7.42007 12.6448 7.02976C12.9373 6.63839 13.0836 6.12225 13.0836 5.48134H13.0847ZM21.7 5.43228C21.7 6.46457 21.4108 7.2793 20.8323 7.87862C20.3144 8.41183 19.671 8.67736 18.9023 8.67736C18.0731 8.67736 17.477 8.3905 17.1152 7.81677V11H15.7252V4.46612C15.7252 3.81774 15.7076 3.15337 15.6735 2.47193H16.8964L16.9745 3.43383H17.0008C17.4638 2.70974 18.1677 2.34717 19.1123 2.34717C19.8503 2.34717 20.4661 2.62976 20.961 3.19603C21.4526 3.76335 21.7011 4.50771 21.7011 5.43228H21.7ZM20.2825 5.48134C20.2825 4.89055 20.145 4.40426 19.8701 4.02036C19.5698 3.62152 19.1673 3.4221 18.6604 3.4221C18.3172 3.4221 18.006 3.53301 17.7256 3.75269C17.4462 3.9745 17.2648 4.26243 17.179 4.62075C17.1361 4.78817 17.1141 4.92361 17.1141 5.03131V6.04333C17.1141 6.48376 17.2549 6.85594 17.532 7.16093C17.8114 7.46379 18.1743 7.61629 18.6208 7.61629C19.1453 7.61629 19.5522 7.42007 19.8437 7.02976C20.1362 6.63839 20.2825 6.12225 20.2825 5.48134ZM29.7479 6.17983C29.7479 6.89646 29.4895 7.47872 28.9759 7.92768C28.4106 8.41823 27.6221 8.66457 26.6115 8.66457C25.6778 8.66457 24.9289 8.48967 24.3636 8.13989L24.6847 7.0159C25.2951 7.36568 25.9648 7.54057 26.6939 7.54057C27.2185 7.54057 27.6254 7.4254 27.9168 7.19719C28.2083 6.96791 28.3556 6.66185 28.3556 6.28008C28.3556 5.93776 28.2336 5.65196 27.9938 5.41842C27.753 5.18594 27.3549 4.96839 26.7962 4.77004C25.2764 4.22084 24.5165 3.41677 24.5165 2.35996C24.5165 1.67 24.7848 1.10373 25.3215 0.66224C25.8581 0.220747 26.5686 0 27.4528 0C28.2424 0 28.9011 0.133301 29.4235 0.399903L29.0749 1.4983C28.5833 1.24023 28.0279 1.1112 27.4077 1.1112C26.9172 1.1112 26.5323 1.2285 26.2573 1.46098C26.0253 1.66893 25.9087 1.92273 25.9087 2.22346C25.9087 2.55511 26.0429 2.83131 26.309 3.04779C26.54 3.24721 26.9612 3.46369 27.5704 3.69617C28.3182 3.98837 28.867 4.32855 29.2189 4.71886C29.573 5.10916 29.749 5.59758 29.749 6.1777L29.7479 6.17983ZM34.3569 3.48395H32.8239V6.42938C32.8239 7.17906 33.0944 7.5523 33.6355 7.5523C33.884 7.5523 34.0897 7.53204 34.2535 7.48938L34.292 8.51314C34.0182 8.61231 33.6575 8.66243 33.211 8.66243C32.6622 8.66243 32.2322 8.50034 31.9232 8.17509C31.6142 7.84983 31.4591 7.30596 31.4591 6.53922V3.48076H30.5463V2.46874H31.4591V1.35754L32.825 0.957635V2.46767H34.358V3.48182L34.3569 3.48395ZM41.2589 5.45574C41.2589 6.38885 40.9839 7.15453 40.4341 7.75279C39.86 8.36917 39.0946 8.6763 38.1422 8.6763C37.1898 8.6763 36.4915 8.3809 35.946 7.79118C35.4006 7.20039 35.1278 6.45497 35.1278 5.55705C35.1278 4.65914 35.4094 3.84653 35.9713 3.24828C36.5344 2.64896 37.2921 2.3493 38.2445 2.3493C39.1969 2.3493 39.9007 2.64469 40.4583 3.23548C40.9916 3.80814 41.2578 4.54823 41.2578 5.45574H41.2589ZM39.8171 5.48667C39.8171 4.93107 39.6928 4.45439 39.4443 4.05555C39.1529 3.57353 38.735 3.33253 38.195 3.33253C37.655 3.33253 37.2107 3.57353 36.9204 4.05555C36.6708 4.45439 36.5476 4.9396 36.5476 5.51226C36.5476 6.08492 36.6719 6.54668 36.9204 6.94445C37.2206 7.42647 37.6407 7.66748 38.184 7.66748C38.7273 7.66748 39.132 7.42113 39.4333 6.93272C39.6884 6.52429 39.8171 6.0444 39.8171 5.48774V5.48667ZM45.7799 3.65778C45.6347 3.63219 45.4885 3.62046 45.3411 3.62046C44.8517 3.62046 44.4734 3.79855 44.2073 4.15793C43.9763 4.47358 43.8597 4.87348 43.8597 5.35657V8.5398H42.4697V4.38294C42.4708 3.74629 42.4576 3.10965 42.429 2.473H43.6398L43.6904 3.63432H43.7289C43.8762 3.23548 44.1072 2.91343 44.4239 2.67242C44.7142 2.46234 45.0662 2.34823 45.4291 2.34717C45.5577 2.34717 45.6732 2.3557 45.7766 2.37169V3.65778H45.7777H45.7799ZM51.9989 5.219C52.0022 5.42375 51.9857 5.6285 51.9483 5.83005H47.777C47.7924 6.42937 47.9948 6.889 48.3819 7.20465C48.7338 7.48618 49.188 7.62802 49.7466 7.62802C50.3647 7.62802 50.9278 7.53311 51.4347 7.34115L51.6525 8.27639C51.0597 8.527 50.3614 8.65177 49.5542 8.65177C48.5842 8.65177 47.8221 8.3745 47.2678 7.8221C46.7147 7.26864 46.4375 6.52535 46.4375 5.59438C46.4375 4.6634 46.6949 3.91798 47.2106 3.31013C47.7506 2.66176 48.4808 2.33757 49.3991 2.33757C50.3174 2.33757 50.9838 2.66176 51.4479 3.31013C51.8152 3.82414 52 4.46185 52 5.21794L51.9989 5.219ZM50.6726 4.86922C50.6825 4.46932 50.5912 4.12487 50.4021 3.83267C50.1612 3.4573 49.7906 3.26961 49.2946 3.26961C48.8405 3.26961 48.4698 3.45196 48.1883 3.81881C47.9563 4.10994 47.8188 4.46078 47.777 4.86709H50.6726V4.86815V4.86922Z" fill="white"/>
</svg>
