<svg width="50" height="4" viewBox="0 0 50 4" fill="none" xmlns="http://www.w3.org/2000/svg">
<path d="M0.988428 3.97201C0.60567 3.97201 0.275107 3.9556 0 3.92761V0.245174C0.384932 0.192085 0.774212 0.166023 1.16349 0.166988C2.7402 0.166988 3.46657 0.855213 3.46657 1.9778C3.46657 3.2722 2.60862 3.97201 0.988428 3.97201ZM1.21895 0.638996C1.00583 0.638996 0.825319 0.650579 0.674174 0.677606V3.47683C0.755727 3.48842 0.911224 3.49324 1.13087 3.49324C2.16389 3.49324 2.75216 2.97104 2.75216 1.99421C2.75216 1.12259 2.22043 0.638996 1.21895 0.638996ZM5.7294 4C4.84102 4 4.2647 3.4112 4.2647 2.61197C4.2647 1.81274 4.85298 1.18436 5.77942 1.18436C6.65476 1.18436 7.24412 1.74517 7.24412 2.56757C7.24412 3.38996 6.63737 4 5.7294 4ZM5.7555 1.62259C5.26727 1.62259 4.9541 2.02799 4.9541 2.59459C4.9541 3.1612 5.27379 3.55598 5.74898 3.55598C6.22416 3.55598 6.54385 3.12259 6.54385 2.58398C6.54385 2.04537 6.23069 1.62355 5.7555 1.62355V1.62259ZM12.3124 1.23938L11.3609 3.93822H10.7411L10.3475 2.76641C10.2496 2.47973 10.1681 2.18919 10.1028 1.89479H10.0898C10.0398 2.18919 9.94626 2.48359 9.84622 2.76641L9.42758 3.93822H8.80125L7.90634 1.23938H8.60118L8.94587 2.5222C9.02743 2.82819 9.09593 3.11583 9.15247 3.389H9.16552C9.21554 3.16216 9.29601 2.87838 9.41562 2.52799L9.84731 1.23938H10.3975L10.8107 2.5C10.9108 2.80598 10.9923 3.10521 11.0554 3.389H11.0739C11.1174 3.111 11.187 2.8166 11.2805 2.5L11.6502 1.23938H12.3135H12.3124ZM15.8138 3.93822H15.1374V2.38803C15.1374 1.9112 14.9308 1.67181 14.5241 1.67181C14.1175 1.67181 13.8478 1.9778 13.8478 2.33301V3.93822H13.1714V2.01062C13.1714 1.7722 13.1649 1.51641 13.1464 1.23842H13.7412L13.7728 1.65541H13.7912C13.9728 1.3668 14.3415 1.1834 14.7557 1.1834C15.394 1.1834 15.8138 1.6168 15.8138 2.32143V3.93726V3.93822ZM17.6775 3.93822H17.0012V0.000965089H17.6775V3.93822ZM20.1415 3.99903C19.2531 3.99903 18.6768 3.41023 18.6768 2.611C18.6768 1.81178 19.2651 1.1834 20.1916 1.1834C21.068 1.1834 21.6563 1.74421 21.6563 2.5666C21.6563 3.41023 21.0495 3.99903 20.1415 3.99903ZM20.1665 1.62162C19.6783 1.62162 19.3651 2.02703 19.3651 2.59363C19.3651 3.16023 19.6848 3.55502 20.1589 3.55502C20.633 3.55502 20.9538 3.12162 20.9538 2.58301C20.9538 2.03378 20.6428 1.62259 20.1665 1.62259V1.62162ZM24.3203 3.93822L24.2714 3.62741H24.2529C24.0463 3.87741 23.7451 3.99903 23.3634 3.99903C22.8187 3.99903 22.4316 3.66023 22.4316 3.20463C22.4316 2.53861 23.0818 2.19402 24.2094 2.19402V2.14382C24.2094 1.78861 23.9974 1.61004 23.5777 1.61004C23.2775 1.61004 23.0144 1.67664 22.7828 1.81081L22.6458 1.41602C22.9274 1.26062 23.2775 1.18243 23.6897 1.18243C24.4845 1.18243 24.8858 1.55405 24.8858 2.29923V3.29344C24.8858 3.56564 24.8988 3.77703 24.9293 3.93822H24.3203ZM24.2279 2.59363C23.4776 2.59363 23.1003 2.75483 23.1003 3.13803C23.1003 3.42085 23.2949 3.55985 23.5635 3.55985C23.9071 3.55985 24.2268 3.32722 24.2268 3.01062V2.59363H24.2279ZM28.1686 3.93822L28.137 3.50483H28.1186C27.9239 3.83205 27.5977 3.99903 27.1421 3.99903C26.4092 3.99903 25.8655 3.42664 25.8655 2.62162C25.8655 1.8166 26.4288 1.18243 27.1975 1.18243C27.6042 1.18243 27.8924 1.30405 28.0555 1.54923H28.0685V0H28.7449V3.21042C28.7449 3.47104 28.7525 3.71622 28.7699 3.93822H28.1686ZM28.0685 2.35039C28.0685 1.97297 27.7869 1.65058 27.3563 1.65058C26.855 1.65058 26.5484 2.04537 26.5484 2.60039C26.5484 3.15541 26.8659 3.51737 27.3422 3.51737C27.7673 3.51737 28.0674 3.18919 28.0674 2.80116V2.35135L28.0685 2.35039ZM33.0346 4C32.1462 4 31.571 3.4112 31.571 2.61197C31.571 1.81274 32.1593 1.18436 33.0857 1.18436C33.9621 1.18436 34.5504 1.74517 34.5504 2.56757C34.5504 3.4112 33.9447 4 33.0357 4H33.0346ZM33.0596 1.62259C32.5725 1.62259 32.2593 2.02799 32.2593 2.59459C32.2593 3.1612 32.579 3.55598 33.0531 3.55598C33.5272 3.55598 33.848 3.12259 33.848 2.58398C33.849 2.03475 33.537 1.62355 33.0596 1.62355V1.62259ZM38.1844 3.93919H37.5081V2.389C37.5081 1.91216 37.3015 1.67278 36.8948 1.67278C36.4881 1.67278 36.2195 1.97876 36.2195 2.33398V3.93919H35.5432V2.01158C35.5432 1.77317 35.5367 1.51737 35.5182 1.23938H36.113L36.1445 1.65637H36.163C36.3446 1.36776 36.7132 1.18436 37.1264 1.18436C37.7647 1.18436 38.1844 1.61776 38.1844 2.32239V3.93919ZM42.7319 1.69015H41.9881V3.00097C41.9881 3.33494 42.1186 3.50097 42.3817 3.50097C42.5013 3.50097 42.6014 3.48938 42.6818 3.47297L42.7003 3.92857C42.5698 3.97297 42.3937 3.99517 42.1762 3.99517C41.6434 3.99517 41.3248 3.73456 41.3248 3.05116V1.69015H40.8811V1.24035H41.3248V0.746139L41.9881 0.568533V1.24035H42.7319V1.69112V1.69015ZM46.3093 3.93919H45.6341V2.40058C45.6341 1.91795 45.4286 1.67278 45.0208 1.67278C44.6707 1.67278 44.3444 1.88417 44.3444 2.31178V3.93919H43.6692V0.00193055H44.3444V1.62355H44.3575C44.5706 1.32915 44.8783 1.18436 45.272 1.18436C45.9157 1.18436 46.3093 1.62838 46.3093 2.33398V3.93919ZM49.9749 2.73359H47.9469C47.96 3.24421 48.3406 3.53282 48.9049 3.53282C49.205 3.53282 49.4812 3.48842 49.7248 3.40541L49.8303 3.82239C49.5421 3.9334 49.2039 3.98938 48.8103 3.98938C47.8588 3.98938 47.2956 3.4556 47.2956 2.62934C47.2956 1.80309 47.8719 1.17954 48.7342 1.17954C49.5117 1.17954 49.9988 1.69015 49.9988 2.46236C50.0032 2.55309 49.9956 2.64479 49.976 2.73456L49.9749 2.73359ZM49.3551 2.30598C49.3551 1.889 49.118 1.59556 48.6864 1.59556C48.2982 1.59556 47.9915 1.89575 47.9469 2.30598H49.3551Z" fill="white"/>
</svg>
