<svg width="26" height="4" viewBox="0 0 26 4" fill="none" xmlns="http://www.w3.org/2000/svg">
<path d="M4.02088 2.12898C4.02088 2.6449 3.88632 3.0966 3.55162 3.41878C3.14908 3.80626 2.68096 3.99891 2.07715 3.99891C1.47334 3.99891 1.00522 3.80517 0.602679 3.41878C0.200139 3.03129 0 2.58068 0 1.99946C0 1.41823 0.20127 0.967619 0.602679 0.580136C1.00522 0.192653 1.47334 0 2.07715 0C2.34513 0 2.61312 0.0642176 2.8811 0.193741C3.14908 0.323265 3.35035 0.451701 3.48378 0.645442L3.14908 0.967619C2.8811 0.645442 2.5464 0.515918 2.07715 0.515918C1.67461 0.515918 1.2732 0.645442 1.00522 0.967619C0.670523 1.22558 0.535967 1.61306 0.535967 2.06367C0.535967 2.51429 0.670523 2.90177 1.00522 3.15973C1.33991 3.41769 1.67574 3.61143 2.07715 3.61143C2.5464 3.61143 2.8811 3.48191 3.21579 3.15973C3.41706 2.96599 3.55049 2.70803 3.55049 2.38585H2.07602V1.86993H4.01974V2.12789L4.02088 2.12898ZM7.10324 0.517007H5.29408V1.74259H6.96869V2.19429H5.29408V3.41986H7.10324V3.93578H4.75811V0.065306H7.10324V0.517007ZM9.31495 3.93578H8.77899V0.517007H7.64034V0.065306H10.4547V0.517007H9.31608V3.93578H9.31495ZM12.3973 3.93578V0.065306H12.9333V3.93578H12.3973ZM15.2117 3.93578H14.6757V0.517007H13.5371V0.065306H16.2848V0.517007H15.1461V3.93578H15.2128H15.2117ZM21.5777 3.41986C21.1752 3.80735 20.7071 4 20.1032 4C19.4994 4 19.0313 3.80626 18.6288 3.41986C18.2262 3.03238 18.0261 2.58177 18.0261 2.00054C18.0261 1.41932 18.2274 0.968708 18.6288 0.581225C19.0313 0.193742 19.4994 0.00108825 20.1032 0.00108825C20.7071 0.00108825 21.1752 0.19483 21.5777 0.581225C21.9803 0.968708 22.1804 1.41932 22.1804 2.00054C22.1804 2.58177 21.9791 3.03238 21.5777 3.41986ZM19.0313 3.09769C19.2993 3.35565 19.7018 3.54939 20.1032 3.54939C20.5047 3.54939 20.9072 3.41986 21.1752 3.09769C21.4432 2.83973 21.6444 2.45224 21.6444 2.00163C21.6444 1.55102 21.5099 1.16354 21.1752 0.905578C20.9072 0.647619 20.5047 0.453877 20.1032 0.453877C19.7018 0.453877 19.2993 0.583401 19.0313 0.905578C18.7633 1.16354 18.5621 1.55102 18.5621 2.00163C18.5621 2.45224 18.6966 2.83973 19.0313 3.09769ZM22.9176 3.93578V0.065306H23.5203L25.464 3.0966V0.065306H26V3.93578H25.464L23.3869 0.774966V3.93578H22.9176Z" fill="white"/>
</svg>
