<svg width="57" height="11" viewBox="0 0 57 11" fill="none" xmlns="http://www.w3.org/2000/svg">
<path d="M18.1924 3.05812C16.5756 3.05812 15.2954 4.23018 15.2954 5.857C15.2954 7.48382 16.5756 8.65588 18.1924 8.65588C19.8091 8.65588 21.0893 7.48382 21.0893 5.857C21.0893 4.23018 19.8091 3.05812 18.1924 3.05812ZM18.1924 7.48492C17.3169 7.48492 16.5756 6.76872 16.5756 5.79219C16.5756 4.81566 17.3169 4.09946 18.1924 4.09946C19.0678 4.09946 19.8091 4.75085 19.8091 5.79219C19.8091 6.76872 19.0678 7.48492 18.1924 7.48492ZM11.9266 3.05812C10.3099 3.05812 9.02968 4.23018 9.02968 5.857C9.02968 7.48382 10.3099 8.65588 11.9266 8.65588C13.5434 8.65588 14.8236 7.48382 14.8236 5.857C14.8236 4.23018 13.5434 3.05812 11.9266 3.05812ZM11.9266 7.48492C11.0512 7.48492 10.3099 6.76872 10.3099 5.79219C10.3099 4.81566 11.0512 4.09946 11.9266 4.09946C12.8021 4.09946 13.5434 4.75085 13.5434 5.79219C13.5434 6.76872 12.8021 7.48492 11.9266 7.48492ZM4.44776 3.90503V5.07709H7.34472C7.27763 5.72848 7.00818 6.24915 6.6705 6.5743C6.26575 6.96535 5.59267 7.42011 4.44662 7.42011C2.6275 7.42011 1.28021 6.05363 1.28021 4.29609C1.28021 2.53855 2.69458 1.17206 4.44662 1.17206C5.39029 1.17206 6.13045 1.56311 6.6705 2.01788L7.54596 1.17206C6.80466 0.520671 5.86213 0 4.5137 0C2.08858 0 0 1.95307 0 4.29609C0 6.63911 2.08858 8.59217 4.5137 8.59217C5.86099 8.59217 6.80466 8.20112 7.61304 7.3553C8.42141 6.5743 8.69087 5.46705 8.69087 4.62123C8.69087 4.36089 8.69087 4.10056 8.62379 3.90503H4.44662H4.44776ZM35.0363 4.81676C34.7669 4.16537 34.0927 3.05922 32.6112 3.05922C31.1298 3.05922 29.9166 4.16537 29.9166 5.8581C29.9166 7.42011 31.1298 8.65698 32.7465 8.65698C34.0267 8.65698 34.8351 7.87597 35.1046 7.42011L34.1609 6.76872C33.8244 7.22459 33.4196 7.54973 32.7465 7.54973C32.0734 7.54973 31.6687 7.28939 31.3322 6.70391L35.1728 5.1419L35.0375 4.81676H35.0363ZM31.1286 5.72848C31.1286 4.68714 32.0041 4.10166 32.6112 4.10166C33.0831 4.10166 33.5549 4.36199 33.6891 4.68714L31.1286 5.72848ZM27.9622 8.39774H29.2424V0.261434H27.9622V8.39774ZM25.9407 3.64579C25.6042 3.32065 25.0653 2.99441 24.3911 2.99441C22.9767 2.99441 21.6283 4.23128 21.6283 5.79329C21.6283 7.3553 22.9085 8.52736 24.3911 8.52736C25.0653 8.52736 25.6042 8.20222 25.8736 7.87597H25.9407V8.26703C25.9407 9.30837 25.3347 9.89385 24.3911 9.89385C23.6498 9.89385 23.1108 9.37318 22.9767 8.91731L21.8989 9.37318C22.2354 10.0894 23.0438 11 24.4593 11C25.8748 11 27.1538 10.1542 27.1538 8.13631V3.18884H25.9407V3.6447V3.64579ZM24.4581 7.48602C23.5827 7.48602 22.8414 6.76982 22.8414 5.79329C22.8414 4.81676 23.5827 4.10056 24.4581 4.10056C25.3336 4.10056 26.0078 4.81676 26.0078 5.79329C26.0078 6.76982 25.3336 7.48602 24.4581 7.48602ZM40.8973 0.260336H37.8651V8.39664H39.1453V5.33743H40.8973C42.3117 5.33743 43.6601 4.36089 43.6601 2.79888C43.6601 1.23687 42.3128 0.260336 40.8973 0.260336ZM40.9644 4.16647H39.1453V1.36759H40.9644C41.9081 1.36759 42.447 2.14859 42.447 2.73407C42.3799 3.45027 41.841 4.16647 40.9644 4.16647ZM48.7127 2.99441C47.7691 2.99441 46.8265 3.38546 46.4889 4.23128L47.6338 4.68714C47.9032 4.23128 48.308 4.10166 48.7787 4.10166C49.4529 4.10166 50.0589 4.49271 50.126 5.143V5.20781C49.9236 5.07709 49.3847 4.88266 48.8458 4.88266C47.6326 4.88266 46.4207 5.53405 46.4207 6.70501C46.4207 7.81116 47.4314 8.52736 48.5092 8.52736C49.3847 8.52736 49.7894 8.13631 50.126 7.74635H50.1931V8.39774H51.4062V5.27372C51.2709 3.84132 50.126 2.99551 48.7116 2.99551L48.7127 2.99441ZM48.5775 7.48602C48.1727 7.48602 47.5667 7.29049 47.5667 6.76982C47.5667 6.11843 48.308 5.92401 48.914 5.92401C49.4529 5.92401 49.7224 6.05472 50.0589 6.18434C49.9236 6.96535 49.2505 7.48602 48.5763 7.48602H48.5775ZM55.6516 3.18993L54.2372 6.70501H54.1701L52.6875 3.18993H51.3402L53.5641 8.13741L52.2839 10.8715H53.5641L57 3.18993H55.6527H55.6516ZM44.3321 8.39774H45.6123V0.261434H44.3321V8.39774Z" fill="white"/>
</svg>
