<svg width="24" height="24" viewBox="0 0 24 24" fill="none" xmlns="http://www.w3.org/2000/svg">
<path d="M6.16158 16.3291C5.84517 16.6456 5.8301 17.2106 6.16911 17.542C6.50058 17.8735 7.06559 17.866 7.382 17.5496L11.9925 12.9315L16.6105 17.5496C16.9345 17.8735 17.4919 17.8735 17.8234 17.542C18.1473 17.203 18.1549 16.6531 17.8234 16.3291L13.2129 11.7111L17.8234 7.10063C18.1549 6.77669 18.1549 6.21921 17.8234 5.88774C17.4844 5.5638 16.9345 5.55627 16.6105 5.8802L11.9925 10.4982L7.382 5.8802C7.06559 5.5638 6.49305 5.54873 6.16911 5.88774C5.83764 6.21921 5.84517 6.78422 6.16158 7.10063L10.7796 11.7111L6.16158 16.3291Z" fill="black"/>
</svg>
